<svg xmlns="http://www.w3.org/2000/svg" width="256" height="256" viewBox="0 0 256 256" role="img" aria-labelledby="title desc">
  <title id="title">Badlands Search and Rescue simplified icon</title>
  <desc id="desc">A circular badge icon with a red cross and simple rock formation silhouette for favicon use.</desc>

  <!-- Source artwork for favicon exports. Replace this file if you want to regenerate the PNG favicons later. -->
  <rect width="256" height="256" rx="44" fill="#ffffff" />
  <circle cx="128" cy="128" r="104" fill="#111111" />
  <circle cx="128" cy="128" r="92" fill="#ffffff" />
  <circle cx="128" cy="128" r="78" fill="#111111" />
  <circle cx="128" cy="128" r="64" fill="#ffffff" />

  <!-- Minimal badlands silhouette kept simple for small-size legibility. -->
  <path
    d="M82 115
       L94 105
       L109 101
       L118 92
       L146 92
       L154 98
       L168 101
       L176 110
       L169 114
       L154 116
       L146 122
       L139 119
       L129 124
       L116 123
       L104 127
       L90 125
       Z"
    fill="#111111"
  />

  <path
    d="M78 147
       C91 139, 105 136, 122 136
       C139 136, 154 139, 178 147
       L178 158
       C153 150, 138 148, 122 148
       C106 148, 91 150, 78 158
       Z"
    fill="#111111"
  />

  <rect x="114" y="84" width="28" height="88" rx="5" fill="#d71920" />
  <rect x="84" y="114" width="88" height="28" rx="5" fill="#d71920" />
</svg>
